<svg width="156" height="156" viewBox="0 0 156 156" fill="none" xmlns="http://www.w3.org/2000/svg">
<path d="M139.283 77.8714C139.283 111.79 111.787 139.286 77.868 139.286C43.9495 139.286 16.4532 111.79 16.4532 77.8714C16.4532 43.9529 43.9495 16.4565 77.868 16.4565C111.787 16.4565 139.283 43.9529 139.283 77.8714ZM27.8891 77.8714C27.8891 105.474 50.2655 127.85 77.868 127.85C105.471 127.85 127.847 105.474 127.847 77.8714C127.847 50.2688 105.471 27.8925 77.868 27.8925C50.2655 27.8925 27.8891 50.2688 27.8891 77.8714Z" fill="#EEEEEE"/>
<path d="M73.2151 21.1081C73.0137 18.6528 74.8423 16.482 77.3058 16.4593C89.3802 16.3479 101.257 19.8 111.426 26.433C122.843 33.8809 131.458 44.9157 135.914 57.7991C140.369 70.6825 140.412 84.6821 136.034 97.5922C131.657 110.502 123.109 121.589 111.736 129.106C100.364 136.623 86.8141 140.142 73.2212 139.11C59.6284 138.078 46.7652 132.553 36.6584 123.405C26.5516 114.257 19.7757 102.006 17.3981 88.583C15.2806 76.6283 16.7591 64.3488 21.5935 53.2839C22.5798 51.0264 25.2936 50.1947 27.4736 51.3423L29.6987 52.5136C31.8787 53.6611 32.6955 56.3526 31.7468 58.6262C28.0733 67.43 26.9842 77.1341 28.6588 86.5885C30.5937 97.5121 36.1079 107.481 44.3327 114.926C52.5575 122.371 63.0254 126.867 74.0872 127.707C85.149 128.547 96.1759 125.683 105.431 119.566C114.685 113.449 121.642 104.426 125.204 93.9201C128.766 83.4139 128.732 72.0212 125.106 61.5368C121.48 51.0524 114.469 42.0723 105.177 36.0114C97.1356 30.7656 87.781 27.9646 78.2418 27.8941C75.7783 27.8758 73.6221 26.0696 73.4207 23.6143L73.2151 21.1081Z" fill="url(#paint0_linear_13_376)"/>
<path d="M62.3782 79.3154C62.3782 83.5342 61.4895 86.6836 59.7122 88.7637C57.9348 90.8438 55.2444 91.8838 51.6409 91.8838C50.3714 91.8838 49.4095 91.8154 48.7552 91.6787V88.0459C49.5755 88.251 50.4348 88.3535 51.3333 88.3535C52.847 88.3535 54.0921 88.1338 55.0686 87.6943C56.0452 87.2451 56.7923 86.5469 57.3098 85.5996C57.8274 84.6426 58.1253 83.3291 58.2034 81.6592H58.0276C57.4612 82.5771 56.8069 83.2217 56.0647 83.5928C55.3225 83.9639 54.3948 84.1494 53.2815 84.1494C51.4163 84.1494 49.9466 83.5537 48.8723 82.3623C47.7981 81.1611 47.261 79.4961 47.261 77.3672C47.261 75.0723 47.9104 73.2607 49.2093 71.9326C50.5179 70.5947 52.2952 69.9258 54.5413 69.9258C56.1233 69.9258 57.5052 70.2969 58.6868 71.0391C59.8782 71.7812 60.7913 72.8604 61.4261 74.2764C62.0608 75.6826 62.3782 77.3623 62.3782 79.3154ZM54.6292 73.5586C53.6917 73.5586 52.9593 73.8809 52.4319 74.5254C51.9046 75.1699 51.6409 76.0977 51.6409 77.3086C51.6409 78.3438 51.8802 79.1641 52.3587 79.7695C52.8372 80.375 53.5647 80.6777 54.5413 80.6777C55.4593 80.6777 56.2454 80.3799 56.8997 79.7842C57.554 79.1787 57.8811 78.4854 57.8811 77.7041C57.8811 76.542 57.5735 75.5605 56.9583 74.7598C56.3528 73.959 55.5764 73.5586 54.6292 73.5586ZM75.8255 91.5908H71.2991V79.1982L71.343 77.1621L71.4163 74.9355C70.6643 75.6875 70.1419 76.1807 69.8489 76.415L67.388 78.3926L65.2054 75.668L72.1048 70.1748H75.8255V91.5908ZM85.1858 76.5908C85.1858 77.8311 85.2932 78.7588 85.5081 79.374C85.7327 79.9795 86.0891 80.2822 86.5774 80.2822C87.5149 80.2822 87.9837 79.0518 87.9837 76.5908C87.9837 74.1494 87.5149 72.9287 86.5774 72.9287C86.0891 72.9287 85.7327 73.2314 85.5081 73.8369C85.2932 74.4326 85.1858 75.3506 85.1858 76.5908ZM91.6751 76.5615C91.6751 78.8076 91.2405 80.4971 90.3714 81.6299C89.5022 82.7529 88.2278 83.3145 86.5481 83.3145C84.9368 83.3145 83.6917 82.7383 82.8128 81.5859C81.9339 80.4238 81.4944 78.749 81.4944 76.5615C81.4944 72.0986 83.179 69.8672 86.5481 69.8672C88.1985 69.8672 89.4632 70.4482 90.3421 71.6104C91.2307 72.7627 91.6751 74.4131 91.6751 76.5615ZM101.753 70.1748L89.8733 91.5908H86.3577L98.2376 70.1748H101.753ZM100.186 85.1455C100.186 86.3857 100.293 87.3135 100.508 87.9287C100.733 88.5342 101.089 88.8369 101.577 88.8369C102.515 88.8369 102.984 87.6064 102.984 85.1455C102.984 82.7041 102.515 81.4834 101.577 81.4834C101.089 81.4834 100.733 81.7861 100.508 82.3916C100.293 82.9873 100.186 83.9053 100.186 85.1455ZM106.675 85.1162C106.675 87.3525 106.241 89.0371 105.371 90.1699C104.502 91.293 103.228 91.8545 101.548 91.8545C99.9368 91.8545 98.6917 91.2783 97.8128 90.126C96.9339 88.9639 96.4944 87.2939 96.4944 85.1162C96.4944 80.6533 98.179 78.4219 101.548 78.4219C103.199 78.4219 104.463 79.0029 105.342 80.165C106.231 81.3174 106.675 82.9678 106.675 85.1162Z" fill="#333333"/>
<defs>
<linearGradient id="paint0_linear_13_376" x1="136.04" y1="58.1684" x2="19.7032" y2="97.5748" gradientUnits="userSpaceOnUse">
<stop stop-color="#12A454"/>
<stop offset="1" stop-color="#66BC22" stop-opacity="0"/>
</linearGradient>
</defs>
</svg>
